<?xml version="1.0" standalone="no"?>
<!DOCTYPE svg PUBLIC "-//W3C//DTD SVG 20010904//EN"
 "http://www.w3.org/TR/2001/REC-SVG-20010904/DTD/svg10.dtd">
<svg version="1.0" xmlns="http://www.w3.org/2000/svg"
 width="201.000000pt" height="77.000000pt" viewBox="0 0 201.000000 77.000000"
 preserveAspectRatio="xMidYMid meet">

<g transform="translate(0.000000,77.000000) scale(0.100000,-0.100000)"
fill="#000000" stroke="none">
<path d="M129 651 l-29 -29 0 -237 0 -237 29 -29 29 -29 847 0 847 0 29 29 29
29 0 237 0 237 -29 29 -29 29 -847 0 -847 0 -29 -29z m421 -156 c0 -11 -12
-15 -45 -15 -45 0 -45 0 -45 -35 0 -34 1 -35 40 -35 29 0 40 -4 40 -15 0 -11
-11 -15 -40 -15 l-40 0 0 -40 0 -40 45 0 c33 0 45 -4 45 -15 0 -12 -14 -15
-65 -15 l-65 0 0 120 0 120 65 0 c51 0 65 -3 65 -15z m80 -54 c0 -5 15 -4 35
2 29 9 38 7 55 -8 17 -15 20 -31 20 -92 0 -57 -3 -73 -15 -73 -11 0 -15 16
-17 66 -4 79 -22 101 -57 70 -17 -15 -21 -31 -21 -78 0 -45 -3 -58 -15 -58
-12 0 -15 17 -15 90 0 73 3 90 15 90 8 0 15 -4 15 -9z m191 -56 c12 -36 25
-62 28 -59 3 3 15 31 26 62 12 35 26 57 35 57 18 0 16 -8 -17 -102 -21 -60
-29 -73 -47 -73 -18 0 -26 14 -49 78 -31 87 -33 102 -13 102 8 0 23 -27 37
-65z m272 34 c25 -31 22 -92 -6 -124 -17 -21 -32 -27 -61 -27 -54 0 -81 29
-81 88 0 38 5 50 29 71 24 20 36 24 65 19 20 -3 44 -15 54 -27z m86 -24 c12
-31 21 -61 21 -67 0 -23 18 7 35 59 17 55 31 72 45 57 13 -14 -74 -238 -93
-242 -19 -4 -21 6 -8 41 8 19 3 43 -20 103 -33 89 -35 104 -15 104 8 0 23 -24
35 -55z m249 38 c12 -10 23 -31 24 -48 3 -30 3 -30 -54 -33 -57 -3 -68 -12
-50 -38 12 -18 48 -25 76 -15 20 8 26 8 26 -4 0 -20 -17 -28 -61 -28 -68 0
-103 56 -79 127 17 52 78 72 118 39z m102 7 c0 -6 7 -6 19 1 22 15 51 5 51
-16 0 -12 -6 -15 -19 -10 -29 9 -51 -30 -51 -92 0 -40 -4 -53 -15 -53 -12 0
-15 17 -15 90 0 73 3 90 15 90 8 0 15 -5 15 -10z"/>
<path d="M995 404 c-10 -11 -15 -29 -13 -52 7 -78 88 -72 88 7 0 57 -39 81
-75 45z"/>
<path d="M1352 408 c-24 -24 -13 -38 28 -38 26 0 40 5 40 13 0 18 -21 37 -40
37 -9 0 -21 -5 -28 -12z"/>
</g>
</svg>
